<?xml version="1.0" encoding="UTF-8" standalone="no"?><!DOCTYPE svg PUBLIC "-//W3C//DTD SVG 1.1//EN" "http://www.w3.org/Graphics/SVG/1.1/DTD/svg11.dtd"><!-- Generated by graphviz version 2.40.1 (20161225.0304)
 --><!-- Title: Tree Pages: 1 --><svg xmlns="http://www.w3.org/2000/svg" xmlns:xlink="http://www.w3.org/1999/xlink" width="674pt" height="467pt" viewBox="0.00 0.00 673.55 467.20">
<g id="graph0" class="graph" transform="scale(1 1) rotate(0) translate(4 463.2)">
<title>Tree</title>
<polygon fill="#ffffff" stroke="transparent" points="-4,4 -4,-463.2 669.549,-463.2 669.549,4 -4,4"/>
<!-- 0 -->
<g id="node1" class="node">
<title>0</title>
<polygon fill="none" stroke="#000000" points="445.2414,-459.2 294.2094,-459.2 294.2094,-367.2 445.2414,-367.2 445.2414,-459.2"/>
<text text-anchor="middle" x="369.7254" y="-442.6" font-family="Helvetica,sans-Serif" font-size="14.00" fill="#000000">LeadTime &lt;= 14.5</text>
<text text-anchor="middle" x="369.7254" y="-425.8" font-family="Helvetica,sans-Serif" font-size="14.00" fill="#000000">gini = 0.4</text>
<text text-anchor="middle" x="369.7254" y="-409" font-family="Helvetica,sans-Serif" font-size="14.00" fill="#000000">samples = 20030</text>
<text text-anchor="middle" x="369.7254" y="-392.2" font-family="Helvetica,sans-Serif" font-size="14.00" fill="#000000">value = [14500, 5530]</text>
<text text-anchor="middle" x="369.7254" y="-375.4" font-family="Helvetica,sans-Serif" font-size="14.00" fill="#000000">class = cancel_no</text>
</g>
<!-- 1 -->
<g id="node2" class="node">
<title>1</title>
<polygon fill="none" stroke="#000000" points="359.677,-331.2 223.7738,-331.2 223.7738,-239.2 359.677,-239.2 359.677,-331.2"/>
<text text-anchor="middle" x="291.7254" y="-314.6" font-family="Helvetica,sans-Serif" font-size="14.00" fill="#000000">car_yes &lt;= 0.5</text>
<text text-anchor="middle" x="291.7254" y="-297.8" font-family="Helvetica,sans-Serif" font-size="14.00" fill="#000000">gini = 0.165</text>
<text text-anchor="middle" x="291.7254" y="-281" font-family="Helvetica,sans-Serif" font-size="14.00" fill="#000000">samples = 5689</text>
<text text-anchor="middle" x="291.7254" y="-264.2" font-family="Helvetica,sans-Serif" font-size="14.00" fill="#000000">value = [5173, 516]</text>
<text text-anchor="middle" x="291.7254" y="-247.4" font-family="Helvetica,sans-Serif" font-size="14.00" fill="#000000">class = cancel_no</text>
</g>
<!-- 0&#45;&gt;1 -->
<g id="edge1" class="edge">
<title>0-&gt;1</title>
<path fill="none" stroke="#000000" d="M341.5656,-366.9891C336.2085,-358.1979 330.5549,-348.9202 325.0551,-339.8949"/>
<polygon fill="#000000" stroke="#000000" points="328.0364,-338.0612 319.8439,-331.3431 322.0588,-341.7038 328.0364,-338.0612"/>
<text text-anchor="middle" x="313.9471" y="-351.4377" font-family="Helvetica,sans-Serif" font-size="14.00" fill="#000000">True</text>
</g>
<!-- 6 -->
<g id="node7" class="node">
<title>6</title>
<polygon fill="none" stroke="#000000" points="520.459,-331.2 376.9918,-331.2 376.9918,-239.2 520.459,-239.2 520.459,-331.2"/>
<text text-anchor="middle" x="448.7254" y="-314.6" font-family="Helvetica,sans-Serif" font-size="14.00" fill="#000000">car_yes &lt;= 0.5</text>
<text text-anchor="middle" x="448.7254" y="-297.8" font-family="Helvetica,sans-Serif" font-size="14.00" fill="#000000">gini = 0.455</text>
<text text-anchor="middle" x="448.7254" y="-281" font-family="Helvetica,sans-Serif" font-size="14.00" fill="#000000">samples = 14341</text>
<text text-anchor="middle" x="448.7254" y="-264.2" font-family="Helvetica,sans-Serif" font-size="14.00" fill="#000000">value = [9327, 5014]</text>
<text text-anchor="middle" x="448.7254" y="-247.4" font-family="Helvetica,sans-Serif" font-size="14.00" fill="#000000">class = cancel_no</text>
</g>
<!-- 0&#45;&gt;6 -->
<g id="edge6" class="edge">
<title>0-&gt;6</title>
<path fill="none" stroke="#000000" d="M398.2462,-366.9891C403.672,-358.1979 409.3981,-348.9202 414.9684,-339.8949"/>
<polygon fill="#000000" stroke="#000000" points="417.9727,-341.6911 420.2465,-331.3431 412.0159,-338.0146 417.9727,-341.6911"/>
<text text-anchor="middle" x="426.0052" y="-351.4708" font-family="Helvetica,sans-Serif" font-size="14.00" fill="#000000">False</text>
</g>
<!-- 2 -->
<g id="node3" class="node">
<title>2</title>
<polygon fill="none" stroke="#000000" points="210.677,-203.2 74.7738,-203.2 74.7738,-111.2 210.677,-111.2 210.677,-203.2"/>
<text text-anchor="middle" x="142.7254" y="-186.6" font-family="Helvetica,sans-Serif" font-size="14.00" fill="#000000">LeadTime &lt;= 7.5</text>
<text text-anchor="middle" x="142.7254" y="-169.8" font-family="Helvetica,sans-Serif" font-size="14.00" fill="#000000">gini = 0.205</text>
<text text-anchor="middle" x="142.7254" y="-153" font-family="Helvetica,sans-Serif" font-size="14.00" fill="#000000">samples = 4445</text>
<text text-anchor="middle" x="142.7254" y="-136.2" font-family="Helvetica,sans-Serif" font-size="14.00" fill="#000000">value = [3929, 516]</text>
<text text-anchor="middle" x="142.7254" y="-119.4" font-family="Helvetica,sans-Serif" font-size="14.00" fill="#000000">class = cancel_no</text>
</g>
<!-- 1&#45;&gt;2 -->
<g id="edge2" class="edge">
<title>1-&gt;2</title>
<path fill="none" stroke="#000000" d="M237.933,-238.9891C226.961,-229.5635 215.3381,-219.5787 204.1241,-209.9452"/>
<polygon fill="#000000" stroke="#000000" points="206.305,-207.2045 196.4389,-203.3431 201.7435,-212.5143 206.305,-207.2045"/>
</g>
<!-- 5 -->
<g id="node6" class="node">
<title>5</title>
<polygon fill="none" stroke="#000000" points="356.3731,-194.9003 229.0777,-194.9003 229.0777,-119.4997 356.3731,-119.4997 356.3731,-194.9003"/>
<text text-anchor="middle" x="292.7254" y="-178.2" font-family="Helvetica,sans-Serif" font-size="14.00" fill="#000000">gini = 0.0</text>
<text text-anchor="middle" x="292.7254" y="-161.4" font-family="Helvetica,sans-Serif" font-size="14.00" fill="#000000">samples = 1244</text>
<text text-anchor="middle" x="292.7254" y="-144.6" font-family="Helvetica,sans-Serif" font-size="14.00" fill="#000000">value = [1244, 0]</text>
<text text-anchor="middle" x="292.7254" y="-127.8" font-family="Helvetica,sans-Serif" font-size="14.00" fill="#000000">class = cancel_no</text>
</g>
<!-- 1&#45;&gt;5 -->
<g id="edge5" class="edge">
<title>1-&gt;5</title>
<path fill="none" stroke="#000000" d="M292.0864,-238.9891C292.1721,-228.0272 292.2636,-216.309 292.3499,-205.2667"/>
<polygon fill="#000000" stroke="#000000" points="295.8523,-204.9606 292.4306,-194.9335 288.8525,-204.9058 295.8523,-204.9606"/>
</g>
<!-- 3 -->
<g id="node4" class="node">
<title>3</title>
<polygon fill="none" stroke="#000000" points="135.677,-75.3003 -.2262,-75.3003 -.2262,.1003 135.677,.1003 135.677,-75.3003"/>
<text text-anchor="middle" x="67.7254" y="-58.6" font-family="Helvetica,sans-Serif" font-size="14.00" fill="#000000">gini = 0.161</text>
<text text-anchor="middle" x="67.7254" y="-41.8" font-family="Helvetica,sans-Serif" font-size="14.00" fill="#000000">samples = 3462</text>
<text text-anchor="middle" x="67.7254" y="-25" font-family="Helvetica,sans-Serif" font-size="14.00" fill="#000000">value = [3157, 305]</text>
<text text-anchor="middle" x="67.7254" y="-8.2" font-family="Helvetica,sans-Serif" font-size="14.00" fill="#000000">class = cancel_no</text>
</g>
<!-- 2&#45;&gt;3 -->
<g id="edge3" class="edge">
<title>2-&gt;3</title>
<path fill="none" stroke="#000000" d="M113.7284,-110.9595C108.1636,-102.0855 102.3352,-92.791 96.7689,-83.9147"/>
<polygon fill="#000000" stroke="#000000" points="99.5875,-81.8214 91.3095,-75.2088 93.6571,-85.5403 99.5875,-81.8214"/>
</g>
<!-- 4 -->
<g id="node5" class="node">
<title>4</title>
<polygon fill="none" stroke="#000000" points="281.394,-75.3003 154.0568,-75.3003 154.0568,.1003 281.394,.1003 281.394,-75.3003"/>
<text text-anchor="middle" x="217.7254" y="-58.6" font-family="Helvetica,sans-Serif" font-size="14.00" fill="#000000">gini = 0.337</text>
<text text-anchor="middle" x="217.7254" y="-41.8" font-family="Helvetica,sans-Serif" font-size="14.00" fill="#000000">samples = 983</text>
<text text-anchor="middle" x="217.7254" y="-25" font-family="Helvetica,sans-Serif" font-size="14.00" fill="#000000">value = [772, 211]</text>
<text text-anchor="middle" x="217.7254" y="-8.2" font-family="Helvetica,sans-Serif" font-size="14.00" fill="#000000">class = cancel_no</text>
</g>
<!-- 2&#45;&gt;4 -->
<g id="edge4" class="edge">
<title>2-&gt;4</title>
<path fill="none" stroke="#000000" d="M171.7224,-110.9595C177.2872,-102.0855 183.1156,-92.791 188.6819,-83.9147"/>
<polygon fill="#000000" stroke="#000000" points="191.7937,-85.5403 194.1413,-75.2088 185.8633,-81.8214 191.7937,-85.5403"/>
</g>
<!-- 7 -->
<g id="node8" class="node">
<title>7</title>
<polygon fill="none" stroke="#000000" points="519.3401,-203.2 376.1107,-203.2 376.1107,-111.2 519.3401,-111.2 519.3401,-203.2"/>
<text text-anchor="middle" x="447.7254" y="-186.6" font-family="Helvetica,sans-Serif" font-size="14.00" fill="#000000">RA_Changed &lt;= 0.5</text>
<text text-anchor="middle" x="447.7254" y="-169.8" font-family="Helvetica,sans-Serif" font-size="14.00" fill="#000000">gini = 0.476</text>
<text text-anchor="middle" x="447.7254" y="-153" font-family="Helvetica,sans-Serif" font-size="14.00" fill="#000000">samples = 12809</text>
<text text-anchor="middle" x="447.7254" y="-136.2" font-family="Helvetica,sans-Serif" font-size="14.00" fill="#000000">value = [7795, 5014]</text>
<text text-anchor="middle" x="447.7254" y="-119.4" font-family="Helvetica,sans-Serif" font-size="14.00" fill="#000000">class = cancel_no</text>
</g>
<!-- 6&#45;&gt;7 -->
<g id="edge7" class="edge">
<title>6-&gt;7</title>
<path fill="none" stroke="#000000" d="M448.3644,-238.9891C448.2999,-230.7417 448.2322,-222.0661 448.1658,-213.5724"/>
<polygon fill="#000000" stroke="#000000" points="451.664,-213.3154 448.0859,-203.3431 444.6642,-213.3702 451.664,-213.3154"/>
</g>
<!-- 10 -->
<g id="node11" class="node">
<title>10</title>
<polygon fill="none" stroke="#000000" points="665.3731,-194.9003 538.0777,-194.9003 538.0777,-119.4997 665.3731,-119.4997 665.3731,-194.9003"/>
<text text-anchor="middle" x="601.7254" y="-178.2" font-family="Helvetica,sans-Serif" font-size="14.00" fill="#000000">gini = 0.0</text>
<text text-anchor="middle" x="601.7254" y="-161.4" font-family="Helvetica,sans-Serif" font-size="14.00" fill="#000000">samples = 1532</text>
<text text-anchor="middle" x="601.7254" y="-144.6" font-family="Helvetica,sans-Serif" font-size="14.00" fill="#000000">value = [1532, 0]</text>
<text text-anchor="middle" x="601.7254" y="-127.8" font-family="Helvetica,sans-Serif" font-size="14.00" fill="#000000">class = cancel_no</text>
</g>
<!-- 6&#45;&gt;10 -->
<g id="edge10" class="edge">
<title>6-&gt;10</title>
<path fill="none" stroke="#000000" d="M503.9619,-238.9891C518.5506,-226.7841 534.2601,-213.6416 548.7274,-201.5382"/>
<polygon fill="#000000" stroke="#000000" points="551.198,-204.0346 556.6221,-194.9335 546.7064,-198.6657 551.198,-204.0346"/>
</g>
<!-- 8 -->
<g id="node9" class="node">
<title>8</title>
<polygon fill="none" stroke="#000000" points="480.459,-75.3003 336.9918,-75.3003 336.9918,.1003 480.459,.1003 480.459,-75.3003"/>
<text text-anchor="middle" x="408.7254" y="-58.6" font-family="Helvetica,sans-Serif" font-size="14.00" fill="#000000">gini = 0.492</text>
<text text-anchor="middle" x="408.7254" y="-41.8" font-family="Helvetica,sans-Serif" font-size="14.00" fill="#000000">samples = 11183</text>
<text text-anchor="middle" x="408.7254" y="-25" font-family="Helvetica,sans-Serif" font-size="14.00" fill="#000000">value = [6278, 4905]</text>
<text text-anchor="middle" x="408.7254" y="-8.2" font-family="Helvetica,sans-Serif" font-size="14.00" fill="#000000">class = cancel_no</text>
</g>
<!-- 7&#45;&gt;8 -->
<g id="edge8" class="edge">
<title>7-&gt;8</title>
<path fill="none" stroke="#000000" d="M432.647,-110.9595C429.8437,-102.3628 426.9118,-93.3715 424.0998,-84.748"/>
<polygon fill="#000000" stroke="#000000" points="427.417,-83.631 420.9891,-75.2088 420.7619,-85.8012 427.417,-83.631"/>
</g>
<!-- 9 -->
<g id="node10" class="node">
<title>9</title>
<polygon fill="none" stroke="#000000" points="633.677,-75.3003 497.7738,-75.3003 497.7738,.1003 633.677,.1003 633.677,-75.3003"/>
<text text-anchor="middle" x="565.7254" y="-58.6" font-family="Helvetica,sans-Serif" font-size="14.00" fill="#000000">gini = 0.125</text>
<text text-anchor="middle" x="565.7254" y="-41.8" font-family="Helvetica,sans-Serif" font-size="14.00" fill="#000000">samples = 1626</text>
<text text-anchor="middle" x="565.7254" y="-25" font-family="Helvetica,sans-Serif" font-size="14.00" fill="#000000">value = [1517, 109]</text>
<text text-anchor="middle" x="565.7254" y="-8.2" font-family="Helvetica,sans-Serif" font-size="14.00" fill="#000000">class = cancel_no</text>
</g>
<!-- 7&#45;&gt;9 -->
<g id="edge9" class="edge">
<title>7-&gt;9</title>
<path fill="none" stroke="#000000" d="M493.3473,-110.9595C502.5586,-101.6233 512.2291,-91.8217 521.3952,-82.5313"/>
<polygon fill="#000000" stroke="#000000" points="524.0879,-84.7855 528.6197,-75.2088 519.1049,-79.8692 524.0879,-84.7855"/>
</g>
</g>
</svg>